<svg width="64" height="64" viewBox="0 0 64 64" fill="none" xmlns="http://www.w3.org/2000/svg">
<g id="swift-color">
<path id="Vector" d="M61.9226 12.9595C61.6687 11.6296 61.237 10.3433 60.6403 9.1383C60.0167 7.97109 59.2417 6.899 58.3371 5.95228C57.4041 5.00121 56.3204 4.22522 55.1339 3.65855C53.9629 3.04337 52.7104 2.61351 51.4177 2.38313C50.1355 2.12603 48.7274 2.12603 47.4452 2H15.8145C14.8278 2.01674 13.8434 2.10263 12.8677 2.2571C11.8996 2.37578 10.9518 2.63365 10.0516 3.02336C9.79516 3.14939 9.4129 3.28046 9.15645 3.40649C8.30472 3.88215 7.4951 4.43548 6.7371 5.05999C6.48065 5.31709 6.22419 5.44312 5.96774 5.69518C5.02471 6.60646 4.24481 7.68528 3.66452 8.8812C3.0308 10.0693 2.59711 11.3617 2.38226 12.7024C2.19155 14.0107 2.06397 15.3281 2 16.6496V47.0933C2.0004 48.419 2.12846 49.7414 2.38226 51.0405C2.63618 52.3704 3.0678 53.6567 3.66452 54.8617C4.28812 56.0289 5.06316 57.101 5.96774 58.0477C6.90072 58.9988 7.9844 59.7748 9.17097 60.3415C10.342 60.9566 11.5944 61.3865 12.8871 61.6169C14.1694 61.874 15.5774 61.874 16.8597 62H47.45C48.7826 61.999 50.1124 61.8707 51.4226 61.6169C52.7152 61.3865 53.9677 60.9566 55.1387 60.3415C56.2999 59.7293 57.3772 58.9578 58.3419 58.0477C59.285 57.1364 60.0649 56.0576 60.6452 54.8617C61.2789 53.6736 61.7126 52.3812 61.9274 51.0405C62.1181 49.7322 62.2457 48.4148 62.3097 47.0933V16.9067C62.3077 15.5808 62.178 14.2584 61.9226 12.9595ZM52.8306 51.0405C50.0484 45.6112 44.9048 47.2899 42.3065 48.3838C36.9306 51.474 29.5419 51.7916 22.1048 48.6207C16.3062 46.1695 11.3483 41.9596 7.87419 36.5371C9.48874 37.8247 11.2526 38.8951 13.1242 39.7231C20.8032 43.3023 28.4774 43.0553 33.8823 39.7231C26.1887 33.8451 19.6565 26.2027 14.7887 19.9617C13.8281 18.907 12.9707 17.7553 12.229 16.5236C18.1129 21.8723 27.471 28.6224 30.8 30.533C26.0468 25.459 21.6789 20.0083 17.7355 14.2299C24.2905 20.8665 31.5036 26.7591 39.2532 31.8084C39.5968 32 39.8629 32.1613 40.0758 32.3126C40.303 31.7348 40.4984 31.144 40.6613 30.5431C42.4565 24.045 40.4048 16.6597 35.9242 10.5448C46.2984 16.7807 52.4677 28.4964 49.8839 38.3065C49.8161 38.5737 49.7435 38.8106 49.6661 39.0879L49.7581 39.1988C54.8871 45.5658 53.4694 52.3159 52.8306 51.0405Z" fill="#F05138"/>
</g>
</svg>
